# Blender v2.82 (sub 7) OBJ File: ''
# www.blender.org
mtllib coconut_palm_straight_2.mtl
o cube.231
v 0.561725 -0.351653 0.213282
v 0.074346 0.987409 0.213282
v 0.561725 -0.351653 1.682813
v 0.074346 0.987409 1.682813
v 0.074287 0.987388 0.213282
v 0.561666 -0.351674 0.213282
v 0.074287 0.987388 1.682813
v 0.561666 -0.351674 1.682813
v -0.027398 0.894326 0.436144
v -0.027367 0.894303 0.436193
v 0.433126 1.984020 0.650890
v 0.433157 1.983997 0.650939
v 1.263219 1.758183 0.016721
v 1.263250 1.758160 0.016770
v 0.802695 0.668490 -0.198025
v 0.802726 0.668467 -0.197976
v 0.020374 0.668489 1.479668
v 0.020431 0.668466 1.479660
v 0.480898 1.758183 1.694414
v 0.480956 1.758160 1.694407
v 0.433126 1.984020 0.650890
v 0.433184 1.983997 0.650883
v -0.027398 0.894326 0.436144
v -0.027341 0.894303 0.436136
v 0.433126 1.984020 0.650890
v 0.433138 1.983980 0.650938
v 1.362587 2.670064 0.984172
v 1.362598 2.670025 0.984220
v 2.009764 2.099820 0.353133
v 2.009776 2.099781 0.353181
v 1.080304 1.413775 0.019852
v 1.080316 1.413736 0.019900
v 0.401593 1.552082 1.627958
v 0.401632 1.552037 1.627940
v 1.331053 2.238126 1.961239
v 1.331093 2.238081 1.961221
v 1.362587 2.670064 0.984172
v 1.362626 2.670020 0.984154
v 0.433126 1.984020 0.650890
v 0.433166 1.983975 0.650872
v 1.362587 2.670064 0.984172
v 1.362577 2.670021 0.984216
v 2.378823 2.861181 1.396644
v 2.378813 2.861138 1.396688
v 2.784386 2.121910 0.739968
v 2.784376 2.121866 0.740011
v 1.768149 1.930793 0.327496
v 1.768140 1.930749 0.327539
v 1.101941 2.137253 1.873217
v 1.101962 2.137199 1.873191
v 2.118178 2.328367 2.285691
v 2.118198 2.328315 2.285663
v 2.378823 2.861181 1.396644
v 2.378843 2.861128 1.396618
v 1.362587 2.670064 0.984172
v 1.362607 2.670011 0.984146
v 0.048266 0.587127 1.268923
v 0.048284 0.587074 1.268895
v 1.191997 0.795912 1.575385
v 1.192015 0.795858 1.575357
v 1.341920 1.322169 0.657341
v 1.341937 1.322115 0.657314
v 0.198189 1.113384 0.350880
v 0.198206 1.113330 0.350852
v 0.198206 1.113330 0.350852
v 0.198207 1.113277 0.350884
v 1.341937 1.322115 0.657314
v 1.341938 1.322062 0.657346
v 1.671122 0.795859 -0.212696
v 1.671123 0.795805 -0.212664
v 0.527391 0.587074 -0.519158
v 0.527392 0.587021 -0.519126
v 1.341948 1.322164 0.657351
v 1.341924 1.322116 0.657384
v 2.453003 0.910250 0.861104
v 2.452979 0.910202 0.861137
v 2.397824 0.321162 -0.028928
v 2.397800 0.321115 -0.028895
v 1.286769 0.733076 -0.232681
v 1.286746 0.733029 -0.232648
v 0.980483 0.759575 1.491056
v 0.980472 0.759527 1.491018
v 2.091537 0.347661 1.694809
v 2.091526 0.347613 1.694771
v 2.453003 0.910250 0.861104
v 2.452992 0.910201 0.861067
v 1.341948 1.322164 0.657351
v 1.341937 1.322115 0.657314
v 2.453029 0.910290 0.861145
v 2.452991 0.910254 0.861179
v 3.290345 0.194213 1.020934
v 3.290307 0.194177 1.020968
v 2.997058 -0.344086 0.145466
v 2.997020 -0.344122 0.145501
v 2.159742 0.371990 -0.014323
v 2.159705 0.371954 -0.014288
v 1.910384 0.454257 1.661018
v 1.910358 0.454217 1.660977
v 2.747700 -0.261819 1.820807
v 2.747673 -0.261859 1.820766
v 3.290345 0.194213 1.020934
v 3.290318 0.194174 1.020893
v 2.453029 0.910290 0.861145
v 2.453003 0.910250 0.861104
v 0.150331 0.720046 1.017772
v 0.150285 0.720009 1.017792
v 0.949244 -0.101561 1.381545
v 0.949198 -0.101598 1.381564
v 0.910734 -0.565050 0.419297
v 0.910687 -0.565087 0.419316
v 0.111821 0.256557 0.055524
v 0.111774 0.256520 0.055544
v -0.521303 0.408163 1.788398
v -0.521328 0.408122 1.788359
v 0.277610 -0.413444 2.152170
v 0.277585 -0.413485 2.152131
v 0.949244 -0.101561 1.381545
v 0.949219 -0.101603 1.381506
v 0.150331 0.720046 1.017772
v 0.150306 0.720004 1.017733
v 0.949244 -0.101561 1.381545
v 0.949189 -0.101579 1.381566
v 1.365398 -1.219782 1.529967
v 1.365342 -1.219800 1.529988
v 1.064617 -1.463929 0.533900
v 1.064562 -1.463947 0.533921
v 0.648464 -0.345708 0.385477
v 0.648408 -0.345726 0.385499
v 0.153231 -0.307151 2.064514
v 0.153195 -0.307171 2.064467
v 0.569384 -1.425372 2.212936
v 0.569349 -1.425391 2.212889
v 1.365342 -1.219800 1.529988
v 1.365306 -1.219819 1.529941
v 0.949189 -0.101579 1.381566
v 0.949153 -0.101599 1.381519
vt 0.000000 0.000000
vt 0.000000 1.000000
vt 1.000000 0.000000
vt 1.000000 1.000000
vt 0.000000 1.000000
vt 0.000000 0.000000
vt 1.000000 1.000000
vt 1.000000 0.000000
vt 0.000000 1.000000
vt 0.000000 1.000000
vt 0.000000 1.000000
vt 0.000000 1.000000
vt 0.000000 1.000000
vt 0.000000 1.000000
vt 0.000000 1.000000
vt 0.000000 1.000000
vt 0.807850 0.662500
vt 0.807850 1.000000
vt 0.507850 0.662500
vt 0.507850 1.000000
vt 0.807850 1.000000
vt 0.807850 0.662500
vt 0.507850 1.000000
vt 0.507850 0.662500
vt 0.000000 1.000000
vt 0.000000 1.000000
vt 0.000000 1.000000
vt 0.000000 1.000000
vt 0.000000 1.000000
vt 0.000000 1.000000
vt 0.000000 1.000000
vt 0.000000 1.000000
vt 0.495350 0.662500
vt 0.495350 1.000000
vt 0.195350 0.662500
vt 0.195350 1.000000
vt 0.495350 1.000000
vt 0.495350 0.662500
vt 0.195350 1.000000
vt 0.195350 0.662500
vt 0.000000 1.000000
vt 0.000000 1.000000
vt 0.000000 1.000000
vt 0.000000 1.000000
vt 0.000000 1.000000
vt 0.000000 1.000000
vt 0.000000 1.000000
vt 0.000000 1.000000
vt 0.807850 0.357812
vt 0.807850 0.695312
vt 0.507850 0.357812
vt 0.507850 0.695312
vt 0.807850 0.695312
vt 0.807850 0.357812
vt 0.507850 0.695312
vt 0.507850 0.357812
vt 0.000000 1.000000
vt 0.000000 1.000000
vt 0.000000 1.000000
vt 0.000000 1.000000
vt 0.000000 1.000000
vt 0.000000 1.000000
vt 0.000000 1.000000
vt 0.000000 1.000000
vt 0.495350 0.326562
vt 0.495350 0.664062
vt 0.195350 0.326562
vt 0.195350 0.664062
vt 0.495350 0.664062
vt 0.495350 0.326562
vt 0.195350 0.664062
vt 0.195350 0.326562
vt 0.000000 1.000000
vt 0.000000 1.000000
vt 0.000000 1.000000
vt 0.000000 1.000000
vt 0.000000 1.000000
vt 0.000000 1.000000
vt 0.000000 1.000000
vt 0.000000 1.000000
vt 0.807800 0.000000
vt 0.807800 0.312500
vt 0.507850 0.000000
vt 0.507850 0.312500
vt 0.807800 0.312500
vt 0.807800 0.000000
vt 0.507850 0.312500
vt 0.507850 0.000000
vt 0.000000 1.000000
vt 0.000000 1.000000
vt 0.000000 1.000000
vt 0.000000 1.000000
vt 0.000000 1.000000
vt 0.000000 1.000000
vt 0.000000 1.000000
vt 0.000000 1.000000
vt 0.495350 0.000000
vt 0.495350 0.312500
vt 0.195350 0.000000
vt 0.195350 0.312500
vt 0.495350 0.312500
vt 0.495350 0.000000
vt 0.195350 0.312500
vt 0.195350 0.000000
vt 0.000000 1.000000
vt 0.000000 1.000000
vt 0.000000 1.000000
vt 0.000000 1.000000
vt 0.000000 1.000000
vt 0.000000 1.000000
vt 0.000000 1.000000
vt 0.000000 1.000000
vt 0.495350 0.662500
vt 0.495350 1.000000
vt 0.195350 0.662500
vt 0.195350 1.000000
vt 0.495350 1.000000
vt 0.495350 0.662500
vt 0.195350 1.000000
vt 0.195350 0.662500
vt 0.000000 1.000000
vt 0.000000 1.000000
vt 0.000000 1.000000
vt 0.000000 1.000000
vt 0.000000 1.000000
vt 0.000000 1.000000
vt 0.000000 1.000000
vt 0.000000 1.000000
vt 0.807850 0.662500
vt 0.807850 1.000000
vt 0.507850 0.662500
vt 0.507850 1.000000
vt 0.807850 1.000000
vt 0.807850 0.662500
vt 0.507850 1.000000
vt 0.507850 0.662500
vt 0.000000 1.000000
vt 0.000000 1.000000
vt 0.000000 1.000000
vt 0.000000 1.000000
vt 0.000000 1.000000
vt 0.000000 1.000000
vt 0.000000 1.000000
vt 0.000000 1.000000
vt 0.807850 0.357812
vt 0.807850 0.695312
vt 0.507850 0.357812
vt 0.507850 0.695312
vt 0.807850 0.695312
vt 0.807850 0.357812
vt 0.507850 0.695312
vt 0.507850 0.357812
vt 0.000000 1.000000
vt 0.000000 1.000000
vt 0.000000 1.000000
vt 0.000000 1.000000
vt 0.000000 1.000000
vt 0.000000 1.000000
vt 0.000000 1.000000
vt 0.000000 1.000000
vt 0.495350 0.326562
vt 0.495350 0.664062
vt 0.195350 0.326562
vt 0.195350 0.664062
vt 0.495350 0.664062
vt 0.495350 0.326562
vt 0.195350 0.664062
vt 0.195350 0.326562
vt 0.000000 1.000000
vt 0.000000 1.000000
vt 0.000000 1.000000
vt 0.000000 1.000000
vt 0.000000 1.000000
vt 0.000000 1.000000
vt 0.000000 1.000000
vt 0.000000 1.000000
vt 0.807800 0.000000
vt 0.807800 0.312500
vt 0.507850 0.000000
vt 0.507850 0.312500
vt 0.807800 0.312500
vt 0.807800 0.000000
vt 0.507850 0.312500
vt 0.507850 0.000000
vt 0.000000 1.000000
vt 0.000000 1.000000
vt 0.000000 1.000000
vt 0.000000 1.000000
vt 0.000000 1.000000
vt 0.000000 1.000000
vt 0.000000 1.000000
vt 0.000000 1.000000
vt 0.495350 0.000000
vt 0.495350 0.312500
vt 0.195350 0.000000
vt 0.195350 0.312500
vt 0.495350 0.312500
vt 0.495350 0.000000
vt 0.195350 0.312500
vt 0.195350 0.000000
vt 0.000000 1.000000
vt 0.000000 1.000000
vt 0.000000 1.000000
vt 0.000000 1.000000
vt 0.000000 1.000000
vt 0.000000 1.000000
vt 0.000000 1.000000
vt 0.000000 1.000000
vt 0.807850 0.303125
vt 0.807850 0.640625
vt 0.507850 0.303125
vt 0.507850 0.640625
vt 0.807850 0.640625
vt 0.807850 0.303125
vt 0.507850 0.640625
vt 0.507850 0.303125
vt 0.000000 1.000000
vt 0.000000 1.000000
vt 0.000000 1.000000
vt 0.000000 1.000000
vt 0.000000 1.000000
vt 0.000000 1.000000
vt 0.000000 1.000000
vt 0.000000 1.000000
vt 0.495350 0.303125
vt 0.495350 0.640625
vt 0.195350 0.303125
vt 0.195350 0.640625
vt 0.495350 0.640625
vt 0.495350 0.303125
vt 0.195350 0.640625
vt 0.195350 0.303125
vt 0.000000 1.000000
vt 0.000000 1.000000
vt 0.000000 1.000000
vt 0.000000 1.000000
vt 0.000000 1.000000
vt 0.000000 1.000000
vt 0.000000 1.000000
vt 0.000000 1.000000
vt 0.807850 0.000000
vt 0.807850 0.337500
vt 0.507850 0.000000
vt 0.507850 0.337500
vt 0.807850 0.337500
vt 0.807850 0.000000
vt 0.507850 0.337500
vt 0.507850 0.000000
vt 0.000000 1.000000
vt 0.000000 1.000000
vt 0.000000 1.000000
vt 0.000000 1.000000
vt 0.000000 1.000000
vt 0.000000 1.000000
vt 0.000000 1.000000
vt 0.000000 1.000000
vt 0.495350 0.000000
vt 0.495350 0.337500
vt 0.195350 0.000000
vt 0.195350 0.337500
vt 0.495350 0.337500
vt 0.495350 0.000000
vt 0.195350 0.337500
vt 0.195350 0.000000
vn 0.9397 0.3420 0.0000
vn -0.9397 -0.3420 -0.0000
vn -0.7754 0.2117 0.5949
vn -0.7755 0.2117 0.5948
vn -0.7785 0.2111 0.5911
vn -0.7785 0.2110 0.5912
vn 0.7756 -0.2113 -0.5948
vn 0.7755 -0.2114 -0.5949
vn 0.7776 -0.2119 -0.5920
vn 0.7775 -0.2118 -0.5922
vn -0.5000 0.3660 -0.7849
vn 0.5000 -0.3660 0.7849
vn -0.3834 -0.9061 -0.1786
vn -0.3831 -0.9062 -0.1787
vn -0.3834 -0.9075 -0.1717
vn 0.3816 0.9084 0.1712
vn 0.3837 0.9053 0.1825
vn 0.3836 0.9054 0.1821
vn 0.0573 -0.2117 0.9757
vn 0.0578 -0.2116 0.9756
vn 0.0450 -0.2111 0.9764
vn -0.0495 0.2120 -0.9760
vn -0.0402 0.2111 -0.9766
vn -0.9227 0.3660 0.1214
vn 0.9227 -0.3660 -0.1214
vn -0.3837 -0.9060 -0.1787
vn -0.3836 -0.9060 -0.1787
vn -0.3822 -0.9067 -0.1786
vn -0.3820 -0.9067 -0.1785
vn 0.3843 0.9057 0.1788
vn 0.3844 0.9057 0.1787
vn 0.3838 0.9058 0.1792
vn 0.3841 0.9058 0.1788
vn -0.6064 0.5335 0.5896
vn -0.6064 0.5337 0.5895
vn -0.6087 0.5384 0.5827
vn 0.6057 -0.5326 -0.5912
vn 0.6055 -0.5363 -0.5880
vn 0.6054 -0.5363 -0.5881
vn -0.1890 0.6243 -0.7580
vn 0.1890 -0.6243 0.7580
vn -0.7685 -0.5702 -0.2904
vn -0.7684 -0.5703 -0.2904
vn -0.7740 -0.5702 -0.2752
vn 0.7746 0.5730 0.2677
vn 0.7745 0.5730 0.2678
vn 0.7744 0.5687 0.2772
vn -0.0450 -0.3954 0.9174
vn -0.0186 -0.4060 0.9137
vn -0.0182 -0.4062 0.9136
vn 0.0329 0.4065 -0.9131
vn 0.0247 0.4015 -0.9155
vn -0.6337 0.7149 0.2956
vn 0.6337 -0.7149 -0.2956
vn -0.7731 -0.5703 -0.2777
vn -0.7734 -0.5704 -0.2766
vn -0.7735 -0.5704 -0.2764
vn 0.7713 0.5729 0.2772
vn 0.7752 0.5677 0.2771
vn 0.7752 0.5676 0.2772
vn -0.3830 0.6925 0.6113
vn -0.3831 0.6926 0.6111
vn -0.3786 0.6886 0.6184
vn 0.3776 -0.6931 -0.6141
vn 0.3732 -0.6754 -0.6361
vn 0.3732 -0.6753 -0.6361
vn 0.1508 0.7015 -0.6966
vn -0.1508 -0.7015 0.6966
vn -0.9114 -0.1722 -0.3736
vn -0.9115 -0.1722 -0.3735
vn -0.9133 -0.1708 -0.3698
vn -0.9132 -0.1708 -0.3699
vn 0.9085 0.1744 0.3797
vn 0.9085 0.1746 0.3796
vn 0.9181 0.1653 0.3601
vn -0.2470 -0.5081 0.8252
vn -0.2471 -0.5081 0.8251
vn -0.2382 -0.4896 0.8387
vn -0.2382 -0.4896 0.8388
vn 0.2529 0.5169 -0.8178
vn 0.2526 0.5169 -0.8179
vn 0.2309 0.4715 -0.8511
vn 0.2309 0.4714 -0.8511
vn -0.3275 0.8497 0.4132
vn 0.3275 -0.8497 -0.4132
vn -0.9097 -0.1711 -0.3783
vn -0.9097 -0.1712 -0.3783
vn -0.9151 -0.1733 -0.3642
vn 0.9116 0.1708 0.3739
vn 0.9116 0.1708 0.3740
vn 0.9145 0.1734 0.3655
vn 0.9145 0.1733 0.3655
vn -0.1408 -0.4950 0.8574
vn -0.1410 -0.4919 0.8591
vn -0.1407 -0.4922 0.8591
vn 0.1397 0.4960 -0.8570
vn 0.1400 0.4961 -0.8569
vn 0.1403 0.4948 -0.8576
vn 0.1403 0.4947 -0.8577
vn -0.2747 0.8529 0.4440
vn 0.2747 -0.8529 -0.4440
vn -0.9510 -0.1738 -0.2558
vn -0.9510 -0.1737 -0.2558
vn -0.9506 -0.1746 -0.2566
vn -0.9507 -0.1745 -0.2565
vn 0.9514 0.1714 0.2560
vn 0.9514 0.1713 0.2560
vn 0.9518 0.1728 0.2534
vn -0.3062 0.4891 0.8167
vn -0.3095 0.4951 0.8118
vn -0.3095 0.4949 0.8120
vn 0.3075 -0.4930 -0.8139
vn 0.3075 -0.4932 -0.8138
vn 0.3103 -0.4944 -0.8120
vn 0.3103 -0.4944 -0.8119
vn -0.0159 0.8529 -0.5219
vn 0.0158 -0.8529 0.5219
vn -0.9523 -0.1703 -0.2534
vn -0.9518 -0.1744 -0.2523
vn -0.9518 -0.1746 -0.2523
vn 0.9502 0.1807 0.2538
vn 0.9501 0.1812 0.2538
vn 0.0523 0.5507 0.8331
vn 0.0523 0.5507 0.8330
vn 0.0503 0.5565 0.8293
vn -0.0513 -0.5455 -0.8365
vn -0.0520 -0.5535 -0.8312
vn -0.0520 -0.5536 -0.8312
vn 0.3787 0.7608 -0.5270
vn -0.3787 -0.7608 0.5270
vn -0.9230 0.3456 -0.1690
vn -0.9230 0.3456 -0.1694
vn -0.9258 0.3379 -0.1694
vn -0.9259 0.3378 -0.1692
vn 0.9264 -0.3362 0.1696
vn 0.9264 -0.3363 0.1696
vn 0.9243 -0.3422 0.1692
vn 0.9243 -0.3421 0.1694
vn -0.3409 -0.5299 0.7765
vn -0.3410 -0.5297 0.7766
vn -0.3366 -0.5237 0.7826
vn -0.3365 -0.5237 0.7827
vn 0.3365 0.5183 -0.7862
vn 0.3364 0.5184 -0.7862
vn 0.3385 0.5295 -0.7778
vn 0.3387 0.5295 -0.7778
vn 0.1780 0.7782 0.6023
vn -0.1780 -0.7782 -0.6023
vn -0.9237 0.3449 -0.1670
vn -0.9236 0.3449 -0.1672
vn -0.9241 0.3419 -0.1708
vn -0.9241 0.3419 -0.1707
vn 0.9260 -0.3361 0.1721
vn 0.9260 -0.3362 0.1720
vn 0.9252 -0.3404 0.1675
vn 0.2732 0.5062 0.8180
vn 0.2684 0.5037 0.8212
vn -0.2726 -0.5031 -0.8201
vn -0.2760 -0.5043 -0.8182
vn -0.2760 -0.5042 -0.8183
vn 0.5992 0.5767 -0.5553
vn -0.5992 -0.5767 0.5553
vn -0.7488 0.6471 -0.1436
vn -0.7530 0.6422 -0.1438
vn 0.7475 -0.6486 0.1433
vn 0.7630 -0.6294 0.1473
vn -0.5092 -0.4259 0.7478
vn -0.5092 -0.4259 0.7479
vn -0.5133 -0.4253 0.7454
vn 0.5092 0.4272 -0.7472
vn 0.5092 0.4271 -0.7472
vn 0.5081 0.4239 -0.7498
vn 0.5081 0.4240 -0.7497
vn 0.4201 0.6358 0.6475
vn -0.4201 -0.6358 -0.6475
vn -0.7565 0.6383 -0.1422
vn -0.7565 0.6383 -0.1423
vn -0.7519 0.6439 -0.1417
vn 0.7556 -0.6392 0.1433
vn 0.7556 -0.6392 0.1432
vn 0.7454 -0.6511 0.1429
vn 0.0375 0.4331 0.9006
vn 0.0300 0.4359 0.8995
vn -0.0364 -0.4337 -0.9003
vn -0.0367 -0.4336 -0.9004
vn -0.0360 -0.4347 -0.8998
vn -0.0360 -0.4349 -0.8998
vn 0.7465 0.5873 -0.3128
vn -0.7465 -0.5873 0.3128
vn -0.6648 0.6832 -0.3021
vn -0.6646 0.6834 -0.3021
vn -0.6640 0.6837 -0.3029
vn -0.6640 0.6836 -0.3030
vn 0.6645 -0.6833 0.3025
vn 0.6671 -0.6817 0.3003
vn 0.6671 -0.6818 0.3004
vn -0.6277 -0.2912 0.7219
vn -0.6277 -0.2913 0.7218
vn -0.6330 -0.2905 0.7175
vn 0.6312 0.2904 -0.7192
vn 0.6312 0.2905 -0.7191
vn 0.6282 0.2912 -0.7215
vn 0.4044 0.6692 0.6233
vn -0.4044 -0.6692 -0.6233
vn -0.6655 0.6846 -0.2975
vn -0.6654 0.6846 -0.2977
vn -0.6674 0.6806 -0.3022
vn 0.6648 -0.6835 0.3015
vn 0.6648 -0.6835 0.3014
vn 0.6647 -0.6824 0.3041
vn 0.2934 0.2269 0.9287
vn 0.2933 0.2269 0.9287
vn 0.2740 0.2299 0.9338
vn -0.2832 -0.2281 -0.9316
vn -0.2808 -0.2294 -0.9319
vn -0.2808 -0.2293 -0.9320
vn 0.8950 0.2878 -0.3408
vn -0.8950 -0.2878 0.3408
vn -0.3501 0.9286 -0.1233
vn -0.3440 0.9308 -0.1234
vn 0.3499 -0.9284 0.1250
vn 0.3498 -0.9284 0.1251
vn 0.3439 -0.9307 0.1247
vn 0.3440 -0.9307 0.1246
vn -0.7417 -0.1935 0.6423
vn -0.7417 -0.1934 0.6423
vn -0.7431 -0.1924 0.6409
vn -0.7430 -0.1925 0.6410
vn 0.7449 0.1920 -0.6390
vn 0.7450 0.1920 -0.6389
vn 0.7438 0.1935 -0.6398
vn 0.7438 0.1935 -0.6397
vn 0.5706 0.3131 0.7592
vn -0.5706 -0.3131 -0.7592
vn -0.3500 0.9283 -0.1254
vn -0.3501 0.9283 -0.1253
vn -0.3437 0.9310 -0.1228
vn 0.3470 -0.9284 0.1325
vn 0.3470 -0.9285 0.1325
vn 0.3433 -0.9311 0.1233
usemtl 2.011
s 1
f 1/1/1 2/2/1 3/3/1
f 2/2/1 4/4/1 3/3/1
f 5/5/2 6/6/2 7/7/2
f 6/6/2 8/8/2 7/7/2
usemtl 3.011
f 9/9/3 10/10/4 11/11/5
f 10/10/4 12/12/6 11/11/5
f 13/13/7 14/14/8 15/15/9
f 14/14/8 16/16/10 15/15/9
f 13/17/11 15/18/11 11/19/11
f 15/18/11 9/20/11 11/19/11
f 16/21/12 14/22/12 10/23/12
f 14/22/12 12/24/12 10/23/12
f 15/15/13 16/16/14 9/9/15
f 16/16/14 10/10/15 9/9/15
f 11/11/16 12/12/16 13/13/17
f 12/12/16 14/14/18 13/13/17
f 17/25/19 18/26/20 19/27/21
f 18/26/20 20/28/21 19/27/21
f 21/29/22 22/30/22 23/31/23
f 22/30/22 24/32/23 23/31/23
f 21/33/24 23/34/24 19/35/24
f 23/34/24 17/36/24 19/35/24
f 24/37/25 22/38/25 18/39/25
f 22/38/25 20/40/25 18/39/25
f 23/31/26 24/32/27 17/25/28
f 24/32/27 18/26/29 17/25/28
f 19/27/30 20/28/31 21/29/32
f 20/28/31 22/30/33 21/29/32
f 25/41/34 26/42/35 27/43/36
f 26/42/35 28/44/36 27/43/36
f 29/45/37 30/46/37 31/47/38
f 30/46/37 32/48/39 31/47/38
f 29/49/40 31/50/40 27/51/40
f 31/50/40 25/52/40 27/51/40
f 32/53/41 30/54/41 26/55/41
f 30/54/41 28/56/41 26/55/41
f 31/47/42 32/48/43 25/41/44
f 32/48/43 26/42/44 25/41/44
f 27/43/45 28/44/46 29/45/47
f 28/44/46 30/46/47 29/45/47
f 33/57/48 34/58/48 35/59/49
f 34/58/48 36/60/50 35/59/49
f 37/61/51 38/62/51 39/63/52
f 38/62/51 40/64/52 39/63/52
f 37/65/53 39/66/53 35/67/53
f 39/66/53 33/68/53 35/67/53
f 40/69/54 38/70/54 34/71/54
f 38/70/54 36/72/54 34/71/54
f 39/63/55 40/64/55 33/57/56
f 40/64/55 34/58/57 33/57/56
f 35/59/58 36/60/58 37/61/59
f 36/60/58 38/62/60 37/61/59
f 41/73/61 42/74/62 43/75/63
f 42/74/62 44/76/63 43/75/63
f 45/77/64 46/78/64 47/79/65
f 46/78/64 48/80/66 47/79/65
f 45/81/67 47/82/67 43/83/67
f 47/82/67 41/84/67 43/83/67
f 48/85/68 46/86/68 42/87/68
f 46/86/68 44/88/68 42/87/68
f 47/79/69 48/80/70 41/73/71
f 48/80/70 42/74/72 41/73/71
f 43/75/73 44/76/74 45/77/75
f 44/76/74 46/78/75 45/77/75
f 49/89/76 50/90/77 51/91/78
f 50/90/77 52/92/79 51/91/78
f 53/93/80 54/94/81 55/95/82
f 54/94/81 56/96/83 55/95/82
f 53/97/84 55/98/84 51/99/84
f 55/98/84 49/100/84 51/99/84
f 56/101/85 54/102/85 50/103/85
f 54/102/85 52/104/85 50/103/85
f 55/95/86 56/96/87 49/89/88
f 56/96/87 50/90/88 49/89/88
f 51/91/89 52/92/90 53/93/91
f 52/92/90 54/94/92 53/93/91
f 57/105/93 58/106/93 59/107/94
f 58/106/93 60/108/95 59/107/94
f 61/109/96 62/110/97 63/111/98
f 62/110/97 64/112/99 63/111/98
f 61/113/100 63/114/100 59/115/100
f 63/114/100 57/116/100 59/115/100
f 64/117/101 62/118/101 58/119/101
f 62/118/101 60/120/101 58/119/101
f 63/111/102 64/112/103 57/105/104
f 64/112/103 58/106/105 57/105/104
f 59/107/106 60/108/107 61/109/108
f 60/108/107 62/110/108 61/109/108
f 65/121/109 66/122/109 67/123/110
f 66/122/109 68/124/111 67/123/110
f 69/125/112 70/126/113 71/127/114
f 70/126/113 72/128/115 71/127/114
f 69/129/116 71/130/116 67/131/116
f 71/130/116 65/132/116 67/131/116
f 72/133/117 70/134/117 66/135/117
f 70/134/117 68/136/117 66/135/117
f 71/127/118 72/128/118 65/121/119
f 72/128/118 66/122/120 65/121/119
f 67/123/121 68/124/121 69/125/122
f 68/124/121 70/126/122 69/125/122
f 73/137/123 74/138/124 75/139/125
f 74/138/124 76/140/125 75/139/125
f 77/141/126 78/142/126 79/143/127
f 78/142/126 80/144/128 79/143/127
f 77/145/129 79/146/129 75/147/129
f 79/146/129 73/148/129 75/147/129
f 80/149/130 78/150/130 74/151/130
f 78/150/130 76/152/130 74/151/130
f 79/143/131 80/144/132 73/137/133
f 80/144/132 74/138/134 73/137/133
f 75/139/135 76/140/136 77/141/137
f 76/140/136 78/142/138 77/141/137
f 81/153/139 82/154/140 83/155/141
f 82/154/140 84/156/142 83/155/141
f 85/157/143 86/158/144 87/159/145
f 86/158/144 88/160/146 87/159/145
f 85/161/147 87/162/147 83/163/147
f 87/162/147 81/164/147 83/163/147
f 88/165/148 86/166/148 82/167/148
f 86/166/148 84/168/148 82/167/148
f 87/159/149 88/160/150 81/153/151
f 88/160/150 82/154/152 81/153/151
f 83/155/153 84/156/154 85/157/155
f 84/156/154 86/158/155 85/157/155
f 89/169/156 90/170/156 91/171/157
f 90/170/156 92/172/157 91/171/157
f 93/173/158 94/174/158 95/175/159
f 94/174/158 96/176/160 95/175/159
f 93/177/161 95/178/161 91/179/161
f 95/178/161 89/180/161 91/179/161
f 96/181/162 94/182/162 90/183/162
f 94/182/162 92/184/162 90/183/162
f 95/175/163 96/176/163 89/169/164
f 96/176/163 90/170/164 89/169/164
f 91/171/165 92/172/165 93/173/166
f 92/172/165 94/174/166 93/173/166
f 97/185/167 98/186/168 99/187/169
f 98/186/168 100/188/169 99/187/169
f 101/189/170 102/190/171 103/191/172
f 102/190/171 104/192/173 103/191/172
f 101/193/174 103/194/174 99/195/174
f 103/194/174 97/196/174 99/195/174
f 104/197/175 102/198/175 98/199/175
f 102/198/175 100/200/175 98/199/175
f 103/191/176 104/192/177 97/185/178
f 104/192/177 98/186/178 97/185/178
f 99/187/179 100/188/180 101/189/181
f 100/188/180 102/190/181 101/189/181
usemtl 4.008
f 105/201/182 106/202/182 107/203/183
f 106/202/182 108/204/183 107/203/183
f 109/205/184 110/206/185 111/207/186
f 110/206/185 112/208/187 111/207/186
f 109/209/188 111/210/188 107/211/188
f 111/210/188 105/212/188 107/211/188
f 112/213/189 110/214/189 106/215/189
f 110/214/189 108/216/189 106/215/189
f 111/207/190 112/208/191 105/201/192
f 112/208/191 106/202/193 105/201/192
f 107/203/194 108/204/194 109/205/195
f 108/204/194 110/206/196 109/205/195
f 113/217/197 114/218/198 115/219/199
f 114/218/198 116/220/199 115/219/199
f 117/221/200 118/222/201 119/223/202
f 118/222/201 120/224/202 119/223/202
f 117/225/203 119/226/203 115/227/203
f 119/226/203 113/228/203 115/227/203
f 120/229/204 118/230/204 114/231/204
f 118/230/204 116/232/204 114/231/204
f 119/223/205 120/224/206 113/217/207
f 120/224/206 114/218/207 113/217/207
f 115/219/208 116/220/209 117/221/210
f 116/220/209 118/222/210 117/221/210
f 121/233/211 122/234/212 123/235/213
f 122/234/212 124/236/213 123/235/213
f 125/237/214 126/238/214 127/239/215
f 126/238/214 128/240/216 127/239/215
f 125/241/217 127/242/217 123/243/217
f 127/242/217 121/244/217 123/243/217
f 128/245/218 126/246/218 122/247/218
f 126/246/218 124/248/218 122/247/218
f 127/239/219 128/240/219 121/233/220
f 128/240/219 122/234/220 121/233/220
f 123/235/221 124/236/222 125/237/223
f 124/236/222 126/238/224 125/237/223
f 129/249/225 130/250/226 131/251/227
f 130/250/226 132/252/228 131/251/227
f 133/253/229 134/254/230 135/255/231
f 134/254/230 136/256/232 135/255/231
f 133/257/233 135/258/233 131/259/233
f 135/258/233 129/260/233 131/259/233
f 136/261/234 134/262/234 130/263/234
f 134/262/234 132/264/234 130/263/234
f 135/255/235 136/256/236 129/249/237
f 136/256/236 130/250/237 129/249/237
f 131/251/238 132/252/239 133/253/240
f 132/252/239 134/254/240 133/253/240
