# Blender v2.82 (sub 7) OBJ File: ''
# www.blender.org
mtllib date_palm_corner_1.mtl
o cube.299
v 0.170602 0.567432 1.714954
v 0.170581 0.567384 1.714920
v 1.296136 0.166353 1.581016
v 1.296115 0.166305 1.580982
v 1.397540 0.748340 0.690379
v 1.397518 0.748292 0.690345
v 0.272005 1.149419 0.824317
v 0.271984 1.149371 0.824283
v 0.044634 -0.476652 0.030389
v -0.299995 0.862409 0.375018
v 1.083750 -0.476653 1.069504
v 0.739121 0.862409 1.414133
v -0.300036 0.862388 0.375059
v 0.044593 -0.476674 0.030430
v 0.739079 0.862388 1.414175
v 1.083708 -0.476674 1.069546
v 0.044634 -0.476652 0.030389
v -0.299995 0.862409 0.375018
v 1.083750 -0.476653 1.069504
v 0.739121 0.862409 1.414133
v -0.300036 0.862388 0.375059
v 0.044593 -0.476674 0.030430
v 0.739079 0.862388 1.414175
v 1.083708 -0.476674 1.069546
v 0.272005 1.149419 0.824317
v 0.271990 1.149365 0.824345
v 1.397540 0.748340 0.690379
v 1.397524 0.748287 0.690407
v 1.134800 0.327076 -0.256052
v 1.134784 0.327023 -0.256023
v 0.009265 0.728155 -0.122114
v 0.009250 0.728101 -0.122086
v 0.272005 1.149419 0.824317
v 0.271990 1.149365 0.824345
v 1.397540 0.748340 0.690379
v 1.397524 0.748287 0.690407
v 1.134800 0.327076 -0.256052
v 1.134784 0.327023 -0.256023
v 0.009265 0.728155 -0.122114
v 0.009250 0.728101 -0.122086
v 0.170602 0.567432 1.714954
v 0.170581 0.567384 1.714920
v 1.296136 0.166353 1.581016
v 1.296115 0.166305 1.580982
v 1.397540 0.748340 0.690379
v 1.397518 0.748292 0.690345
v 0.272005 1.149419 0.824317
v 0.271984 1.149371 0.824283
v 1.397540 0.748340 0.690379
v 1.397502 0.748310 0.690418
v 1.986146 -0.276252 0.468156
v 1.986109 -0.276282 0.468196
v 1.314242 -0.487930 -0.335562
v 1.314204 -0.487960 -0.335523
v 0.725635 0.536663 -0.113339
v 0.725597 0.536633 -0.113300
v 1.020514 0.334312 1.600686
v 1.020464 0.334290 1.600655
v 1.609121 -0.690281 1.378463
v 1.609071 -0.690303 1.378432
v 1.986146 -0.276252 0.468156
v 1.986096 -0.276274 0.468126
v 1.397540 0.748340 0.690379
v 1.397490 0.748318 0.690348
v 1.397540 0.748340 0.690379
v 1.397502 0.748310 0.690418
v 1.986146 -0.276252 0.468156
v 1.986109 -0.276282 0.468196
v 1.314242 -0.487930 -0.335562
v 1.314204 -0.487960 -0.335523
v 0.725635 0.536663 -0.113339
v 0.725597 0.536633 -0.113300
v 1.020514 0.334312 1.600686
v 1.020464 0.334290 1.600655
v 1.609121 -0.690281 1.378463
v 1.609071 -0.690303 1.378432
v 1.986146 -0.276252 0.468156
v 1.986096 -0.276274 0.468126
v 1.397540 0.748340 0.690379
v 1.397490 0.748318 0.690348
v 0.012506 1.060030 0.992825
v 0.012548 1.059983 0.992829
v 0.681816 1.589395 0.145813
v 0.681857 1.589348 0.145817
v 0.144537 1.058682 -0.610429
v 0.144578 1.058635 -0.610425
v -0.524772 0.529318 0.236583
v -0.524731 0.529271 0.236586
v 0.893275 0.633022 1.421938
v 0.893268 0.632972 1.421902
v 1.562584 1.162387 0.574926
v 1.562578 1.162337 0.574890
v 0.681816 1.589395 0.145813
v 0.681809 1.589344 0.145777
v 0.012506 1.060030 0.992825
v 0.012500 1.059980 0.992789
v 0.012506 1.060030 0.992825
v 0.012548 1.059983 0.992829
v 0.681816 1.589395 0.145813
v 0.681857 1.589348 0.145817
v 0.144537 1.058682 -0.610429
v 0.144578 1.058635 -0.610425
v -0.524772 0.529318 0.236583
v -0.524731 0.529271 0.236586
v 0.893275 0.633022 1.421938
v 0.893268 0.632972 1.421902
v 1.562584 1.162387 0.574926
v 1.562578 1.162337 0.574890
v 0.681816 1.589395 0.145813
v 0.681809 1.589344 0.145777
v 0.012506 1.060030 0.992825
v 0.012500 1.059980 0.992789
v 0.681816 1.589395 0.145813
v 0.681844 1.589348 0.145843
v 1.383883 1.398574 -0.811433
v 1.383911 1.398527 -0.811402
v 0.663189 0.713640 -1.203470
v 0.663218 0.713593 -1.203440
v -0.038878 0.904461 -0.246224
v -0.038850 0.904414 -0.246194
v 1.382293 1.069321 0.763233
v 1.382263 1.069267 0.763222
v 2.084360 0.878500 -0.194013
v 2.084330 0.878447 -0.194024
v 1.383911 1.398527 -0.811402
v 1.383881 1.398473 -0.811414
v 0.681844 1.589348 0.145843
v 0.681814 1.589294 0.145832
v 0.681816 1.589395 0.145813
v 0.681844 1.589348 0.145843
v 1.383883 1.398574 -0.811433
v 1.383911 1.398527 -0.811402
v 0.663189 0.713640 -1.203470
v 0.663218 0.713593 -1.203440
v -0.038878 0.904461 -0.246224
v -0.038850 0.904414 -0.246194
v 1.382293 1.069321 0.763233
v 1.382263 1.069267 0.763222
v 2.084360 0.878500 -0.194013
v 2.084330 0.878447 -0.194024
v 1.383911 1.398527 -0.811402
v 1.383881 1.398473 -0.811414
v 0.681844 1.589348 0.145843
v 0.681814 1.589294 0.145832
v 1.383883 1.398574 -0.811433
v 1.383894 1.398553 -0.811374
v 1.787652 0.446828 -1.224404
v 1.787663 0.446808 -1.224346
v 0.808568 0.019244 -1.196250
v 0.808579 0.019224 -1.196192
v 0.404799 0.970990 -0.783279
v 0.404809 0.970969 -0.783221
v 1.813745 1.168288 0.139574
v 1.813692 1.168259 0.139591
v 2.217515 0.216543 -0.273397
v 2.217462 0.216513 -0.273381
v 1.787652 0.446828 -1.224404
v 1.787600 0.446799 -1.224387
v 1.383883 1.398574 -0.811433
v 1.383830 1.398545 -0.811416
v 1.383883 1.398574 -0.811433
v 1.383894 1.398553 -0.811374
v 1.787652 0.446828 -1.224404
v 1.787663 0.446808 -1.224346
v 0.808568 0.019244 -1.196250
v 0.808579 0.019224 -1.196192
v 0.404799 0.970990 -0.783279
v 0.404809 0.970969 -0.783221
v 1.813745 1.168288 0.139574
v 1.813692 1.168259 0.139591
v 2.217515 0.216543 -0.273397
v 2.217462 0.216513 -0.273381
v 1.787652 0.446828 -1.224404
v 1.787600 0.446799 -1.224387
v 1.383883 1.398574 -0.811433
v 1.383830 1.398545 -0.811416
vt 0.000000 1.000000
vt 0.000000 1.000000
vt 0.000000 1.000000
vt 0.000000 1.000000
vt 0.000000 1.000000
vt 0.000000 1.000000
vt 0.000000 1.000000
vt 0.000000 1.000000
vt 0.495350 0.334375
vt 0.495350 0.671875
vt 0.195350 0.334375
vt 0.195350 0.671875
vt 0.495350 0.671875
vt 0.495350 0.334375
vt 0.195350 0.671875
vt 0.195350 0.334375
vt 0.000000 1.000000
vt 0.000000 1.000000
vt 0.000000 1.000000
vt 0.000000 1.000000
vt 0.000000 1.000000
vt 0.000000 1.000000
vt 0.000000 1.000000
vt 0.000000 1.000000
vt 0.807850 0.334375
vt 0.807850 0.671875
vt 0.507850 0.334375
vt 0.507850 0.671875
vt 0.807850 0.671875
vt 0.807850 0.334375
vt 0.507850 0.671875
vt 0.507850 0.334375
vt 0.000000 1.000000
vt 0.000000 1.000000
vt 0.000000 1.000000
vt 0.000000 1.000000
vt 0.000000 1.000000
vt 0.000000 1.000000
vt 0.000000 1.000000
vt 0.000000 1.000000
vt 0.807850 0.334375
vt 0.807850 0.671875
vt 0.507850 0.334375
vt 0.507850 0.671875
vt 0.807850 0.671875
vt 0.807850 0.334375
vt 0.507850 0.671875
vt 0.507850 0.334375
vt 0.000000 1.000000
vt 0.000000 1.000000
vt 0.000000 1.000000
vt 0.000000 1.000000
vt 0.000000 1.000000
vt 0.000000 1.000000
vt 0.000000 1.000000
vt 0.000000 1.000000
vt 0.495350 0.334375
vt 0.495350 0.671875
vt 0.195350 0.334375
vt 0.195350 0.671875
vt 0.495350 0.671875
vt 0.495350 0.334375
vt 0.195350 0.671875
vt 0.195350 0.334375
vt 0.000000 1.000000
vt 0.000000 1.000000
vt 0.000000 1.000000
vt 0.000000 1.000000
vt 0.000000 1.000000
vt 0.000000 1.000000
vt 0.000000 1.000000
vt 0.000000 1.000000
vt 0.807850 0.000000
vt 0.807850 0.337500
vt 0.507850 0.000000
vt 0.507850 0.337500
vt 0.807850 0.337500
vt 0.807850 0.000000
vt 0.507850 0.337500
vt 0.507850 0.000000
vt 0.000000 1.000000
vt 0.000000 1.000000
vt 0.000000 1.000000
vt 0.000000 1.000000
vt 0.000000 1.000000
vt 0.000000 1.000000
vt 0.000000 1.000000
vt 0.000000 1.000000
vt 0.495350 0.000000
vt 0.495350 0.337500
vt 0.195350 0.000000
vt 0.195350 0.337500
vt 0.495350 0.337500
vt 0.495350 0.000000
vt 0.195350 0.337500
vt 0.195350 0.000000
vt 0.000000 1.000000
vt 0.000000 1.000000
vt 0.000000 1.000000
vt 0.000000 1.000000
vt 0.000000 1.000000
vt 0.000000 1.000000
vt 0.000000 1.000000
vt 0.000000 1.000000
vt 0.807850 0.000000
vt 0.807850 0.337500
vt 0.507850 0.000000
vt 0.507850 0.337500
vt 0.807850 0.337500
vt 0.807850 0.000000
vt 0.507850 0.337500
vt 0.507850 0.000000
vt 0.000000 1.000000
vt 0.000000 1.000000
vt 0.000000 1.000000
vt 0.000000 1.000000
vt 0.000000 1.000000
vt 0.000000 1.000000
vt 0.000000 1.000000
vt 0.000000 1.000000
vt 0.495350 0.000000
vt 0.495350 0.337500
vt 0.195350 0.000000
vt 0.195350 0.337500
vt 0.495350 0.337500
vt 0.495350 0.000000
vt 0.195350 0.337500
vt 0.195350 0.000000
vt 0.000000 1.000000
vt 0.000000 1.000000
vt 0.000000 1.000000
vt 0.000000 1.000000
vt 0.000000 1.000000
vt 0.000000 1.000000
vt 0.000000 1.000000
vt 0.000000 1.000000
vt 0.807850 0.662500
vt 0.807850 1.000000
vt 0.507850 0.662500
vt 0.507850 1.000000
vt 0.807850 1.000000
vt 0.807850 0.662500
vt 0.507850 1.000000
vt 0.507850 0.662500
vt 0.000000 1.000000
vt 0.000000 1.000000
vt 0.000000 1.000000
vt 0.000000 1.000000
vt 0.000000 1.000000
vt 0.000000 1.000000
vt 0.000000 1.000000
vt 0.000000 1.000000
vt 0.495350 0.662500
vt 0.495350 1.000000
vt 0.195350 0.662500
vt 0.195350 1.000000
vt 0.495350 1.000000
vt 0.495350 0.662500
vt 0.195350 1.000000
vt 0.195350 0.662500
vt 0.000000 1.000000
vt 0.000000 1.000000
vt 0.000000 1.000000
vt 0.000000 1.000000
vt 0.000000 1.000000
vt 0.000000 1.000000
vt 0.000000 1.000000
vt 0.000000 1.000000
vt 0.807850 0.662500
vt 0.807850 1.000000
vt 0.507850 0.662500
vt 0.507850 1.000000
vt 0.807850 1.000000
vt 0.807850 0.662500
vt 0.507850 1.000000
vt 0.507850 0.662500
vt 0.000000 1.000000
vt 0.000000 1.000000
vt 0.000000 1.000000
vt 0.000000 1.000000
vt 0.000000 1.000000
vt 0.000000 1.000000
vt 0.000000 1.000000
vt 0.000000 1.000000
vt 0.495350 0.662500
vt 0.495350 1.000000
vt 0.195350 0.662500
vt 0.195350 1.000000
vt 0.495350 1.000000
vt 0.495350 0.662500
vt 0.195350 1.000000
vt 0.195350 0.662500
vt 0.000000 1.000000
vt 0.000000 1.000000
vt 0.000000 1.000000
vt 0.000000 1.000000
vt 0.000000 1.000000
vt 0.000000 1.000000
vt 0.000000 1.000000
vt 0.000000 1.000000
vt 0.807850 0.357812
vt 0.807850 0.695312
vt 0.507850 0.357812
vt 0.507850 0.695312
vt 0.807850 0.695312
vt 0.807850 0.357812
vt 0.507850 0.695312
vt 0.507850 0.357812
vt 0.000000 1.000000
vt 0.000000 1.000000
vt 0.000000 1.000000
vt 0.000000 1.000000
vt 0.000000 1.000000
vt 0.000000 1.000000
vt 0.000000 1.000000
vt 0.000000 1.000000
vt 0.495350 0.326562
vt 0.495350 0.664062
vt 0.195350 0.326562
vt 0.195350 0.664062
vt 0.495350 0.664062
vt 0.495350 0.326562
vt 0.195350 0.664062
vt 0.195350 0.326562
vt 0.000000 1.000000
vt 0.000000 1.000000
vt 0.000000 1.000000
vt 0.000000 1.000000
vt 0.000000 1.000000
vt 0.000000 1.000000
vt 0.000000 1.000000
vt 0.000000 1.000000
vt 0.807850 0.357812
vt 0.807850 0.695312
vt 0.507850 0.357812
vt 0.507850 0.695312
vt 0.807850 0.695312
vt 0.807850 0.357812
vt 0.507850 0.695312
vt 0.507850 0.357812
vt 0.000000 1.000000
vt 0.000000 1.000000
vt 0.000000 1.000000
vt 0.000000 1.000000
vt 0.000000 1.000000
vt 0.000000 1.000000
vt 0.000000 1.000000
vt 0.000000 1.000000
vt 0.495350 0.326562
vt 0.495350 0.664062
vt 0.195350 0.326562
vt 0.195350 0.664062
vt 0.495350 0.664062
vt 0.495350 0.326562
vt 0.195350 0.664062
vt 0.195350 0.326562
vt 0.000000 1.000000
vt 0.000000 1.000000
vt 0.000000 1.000000
vt 0.000000 1.000000
vt 0.000000 1.000000
vt 0.000000 1.000000
vt 0.000000 1.000000
vt 0.000000 1.000000
vt 0.807800 0.000000
vt 0.807800 0.312500
vt 0.507850 0.000000
vt 0.507850 0.312500
vt 0.807800 0.312500
vt 0.807800 0.000000
vt 0.507850 0.312500
vt 0.507850 0.000000
vt 0.000000 1.000000
vt 0.000000 1.000000
vt 0.000000 1.000000
vt 0.000000 1.000000
vt 0.000000 1.000000
vt 0.000000 1.000000
vt 0.000000 1.000000
vt 0.000000 1.000000
vt 0.495350 0.000000
vt 0.495350 0.312500
vt 0.195350 0.000000
vt 0.195350 0.312500
vt 0.495350 0.312500
vt 0.495350 0.000000
vt 0.195350 0.312500
vt 0.195350 0.000000
vt 0.000000 1.000000
vt 0.000000 1.000000
vt 0.000000 1.000000
vt 0.000000 1.000000
vt 0.000000 1.000000
vt 0.000000 1.000000
vt 0.000000 1.000000
vt 0.000000 1.000000
vt 0.807800 0.000000
vt 0.807800 0.312500
vt 0.507850 0.000000
vt 0.507850 0.312500
vt 0.807800 0.312500
vt 0.807800 0.000000
vt 0.507850 0.312500
vt 0.507850 0.000000
vt 0.000000 1.000000
vt 0.000000 1.000000
vt 0.000000 1.000000
vt 0.000000 1.000000
vt 0.000000 1.000000
vt 0.000000 1.000000
vt 0.000000 1.000000
vt 0.000000 1.000000
vt 0.495350 0.000000
vt 0.495350 0.312500
vt 0.195350 0.000000
vt 0.195350 0.312500
vt 0.495350 0.312500
vt 0.495350 0.000000
vt 0.195350 0.312500
vt 0.195350 0.000000
vt 0.000000 0.000000
vt 0.000000 1.000000
vt 1.000000 0.000000
vt 1.000000 1.000000
vt 0.000000 1.000000
vt 0.000000 0.000000
vt 1.000000 1.000000
vt 1.000000 0.000000
vt 0.000000 0.000000
vt 0.000000 1.000000
vt 1.000000 0.000000
vt 1.000000 1.000000
vt 0.000000 1.000000
vt 0.000000 0.000000
vt 1.000000 1.000000
vt 1.000000 0.000000
vn -0.0952 -0.5462 0.8322
vn -0.0952 -0.5461 0.8323
vn -0.0911 -0.5428 0.8349
vn 0.0940 0.5458 -0.8327
vn 0.0946 0.5456 -0.8327
vn 0.0960 0.5401 -0.8361
vn 0.3386 0.7695 0.5414
vn -0.3386 -0.7695 -0.5414
vn -0.9357 0.3347 0.1114
vn -0.9371 0.3311 0.1108
vn 0.9345 -0.3379 -0.1118
vn 0.9345 -0.3378 -0.1118
vn 0.9374 -0.3304 -0.1104
vn 0.9373 -0.3305 -0.1103
vn 0.2430 0.3887 0.8888
vn 0.2436 0.3888 0.8885
vn 0.2450 0.3944 0.8857
vn 0.2449 0.3943 0.8857
vn -0.2456 -0.3952 -0.8852
vn -0.2457 -0.3952 -0.8852
vn -0.2472 -0.3955 -0.8846
vn 0.2515 0.8564 -0.4510
vn -0.2515 -0.8564 0.4510
vn -0.9356 0.3350 0.1111
vn -0.9363 0.3329 0.1122
vn -0.9363 0.3328 0.1123
vn 0.9385 -0.3271 -0.1107
vn 0.9336 -0.3400 -0.1130
vn 0.6280 0.1991 0.7523
vn 0.6291 0.1985 0.7515
vn -0.6264 -0.1981 -0.7539
vn -0.6264 -0.1983 -0.7538
vn -0.6283 -0.1970 -0.7526
vn -0.6284 -0.1971 -0.7525
vn 0.6042 0.4843 -0.6327
vn -0.6042 -0.4843 0.6327
vn -0.4900 0.8511 0.1885
vn -0.4894 0.8530 0.1812
vn -0.4894 0.8530 0.1811
vn 0.4891 -0.8523 -0.1854
vn 0.4894 -0.8522 -0.1851
vn 0.4895 -0.8522 -0.1850
vn 0.4898 -0.8520 -0.1850
vn -0.3641 -0.3862 0.8475
vn -0.3643 -0.3862 0.8474
vn -0.3468 -0.3893 0.8533
vn -0.3469 -0.3893 0.8533
vn 0.3506 0.3867 -0.8529
vn 0.3505 0.3867 -0.8530
vn 0.3533 0.3867 -0.8518
vn 0.3532 0.3866 -0.8519
vn 0.7974 0.3518 0.4903
vn -0.7974 -0.3518 -0.4903
vn -0.4932 0.8497 0.1867
vn -0.4887 0.8529 0.1839
vn -0.4888 0.8528 0.1838
vn 0.4858 -0.8545 -0.1839
vn 0.4910 -0.8513 -0.1850
vn 0.5010 0.4977 0.7080
vn 0.5011 0.4977 0.7080
vn 0.5040 0.4967 0.7066
vn -0.5029 -0.4963 -0.7077
vn -0.5025 -0.4968 -0.7076
vn -0.5043 -0.4983 -0.7052
vn -0.5042 -0.4984 -0.7053
vn -0.6614 0.7480 -0.0551
vn 0.6614 -0.7480 0.0551
vn -0.5543 -0.4391 0.7070
vn -0.5544 -0.4391 0.7070
vn -0.5575 -0.4417 0.7029
vn -0.5574 -0.4416 0.7030
vn 0.5576 0.4435 -0.7017
vn 0.5555 0.4388 -0.7063
vn 0.8256 -0.3981 0.3999
vn 0.8257 -0.3979 0.4000
vn 0.8227 -0.4003 0.4037
vn 0.8227 -0.4002 0.4038
vn -0.8253 0.4007 -0.3979
vn -0.8257 0.3987 -0.3990
vn -0.8257 0.3988 -0.3989
vn 0.1047 0.8041 0.5852
vn -0.1047 -0.8041 -0.5852
vn -0.5539 -0.4419 0.7056
vn -0.5540 -0.4419 0.7056
vn -0.5573 -0.4386 0.7050
vn 0.5549 0.4413 -0.7053
vn 0.5549 0.4413 -0.7052
vn 0.5555 0.4387 -0.7063
vn 0.6716 0.6446 0.3654
vn 0.6742 0.6400 0.3686
vn -0.6739 -0.6414 -0.3666
vn -0.6740 -0.6413 -0.3666
vn -0.6730 -0.6401 -0.3706
vn -0.4520 0.7511 -0.4812
vn 0.4520 -0.7511 0.4812
vn -0.5846 0.1589 0.7956
vn -0.5849 0.1589 0.7954
vn -0.5832 0.1584 0.7968
vn 0.5873 -0.1588 -0.7937
vn 0.5793 -0.1572 -0.7998
vn 0.5792 -0.1572 -0.7999
vn 0.6554 -0.4866 0.5777
vn 0.6554 -0.4865 0.5777
vn 0.6563 -0.4823 0.5803
vn -0.6555 0.4865 -0.5776
vn -0.6565 0.4828 -0.5796
vn 0.4791 0.8591 0.1801
vn -0.4791 -0.8591 -0.1801
vn -0.5809 0.1654 0.7970
vn -0.5809 0.1655 0.7970
vn -0.5849 0.1521 0.7967
vn 0.5853 -0.1620 -0.7944
vn 0.5853 -0.1619 -0.7945
vn 0.5836 -0.1582 -0.7965
vn 0.9163 0.3995 -0.0281
vn 0.9163 0.3996 -0.0280
vn 0.9162 0.3997 -0.0271
vn 0.9164 0.3993 -0.0275
vn -0.9161 -0.4001 0.0267
vn -0.9155 -0.4014 0.0276
vn -0.1709 0.3303 -0.9283
vn 0.1709 -0.3303 0.9283
vn -0.3615 0.8566 0.3681
vn -0.3615 0.8566 0.3682
vn -0.3629 0.8535 0.3739
vn 0.3643 -0.8545 -0.3702
vn 0.3642 -0.8545 -0.3704
vn 0.3566 -0.8569 -0.3723
vn 0.4018 -0.2119 0.8909
vn 0.4016 -0.2124 0.8909
vn 0.4015 -0.2177 0.8896
vn -0.4027 0.2175 -0.8891
vn -0.4048 0.2145 -0.8889
vn -0.4047 0.2144 -0.8889
vn 0.8406 0.4719 -0.2657
vn -0.8406 -0.4719 0.2657
vn -0.3618 0.8564 0.3684
vn -0.3619 0.8564 0.3684
vn -0.3651 0.8542 0.3702
vn -0.3651 0.8543 0.3701
vn 0.3629 -0.8546 -0.3714
vn 0.3629 -0.8547 -0.3713
vn 0.3621 -0.8550 -0.3712
vn 0.3622 -0.8550 -0.3712
vn 0.6645 0.3420 -0.6645
vn -0.6645 -0.3420 0.6645
usemtl 3.015
s 1
f 1/1/1 2/2/2 3/3/3
f 2/2/2 4/4/3 3/3/3
f 5/5/4 6/6/5 7/7/6
f 6/6/5 8/8/6 7/7/6
f 5/9/7 7/10/7 3/11/7
f 7/10/7 1/12/7 3/11/7
f 8/13/8 6/14/8 2/15/8
f 6/14/8 4/16/8 2/15/8
f 7/7/9 8/8/9 1/1/10
f 8/8/9 2/2/10 1/1/10
f 3/3/11 4/4/12 5/5/13
f 4/4/12 6/6/14 5/5/13
f 25/17/15 26/18/16 27/19/17
f 26/18/16 28/20/18 27/19/17
f 29/21/19 30/22/20 31/23/21
f 30/22/20 32/24/21 31/23/21
f 29/25/22 31/26/22 27/27/22
f 31/26/22 25/28/22 27/27/22
f 32/29/23 30/30/23 26/31/23
f 30/30/23 28/32/23 26/31/23
f 31/23/24 32/24/24 25/17/25
f 32/24/24 26/18/26 25/17/25
f 27/19/27 28/20/27 29/21/28
f 28/20/27 30/22/28 29/21/28
f 33/33/15 34/34/16 35/35/17
f 34/34/16 36/36/18 35/35/17
f 37/37/19 38/38/20 39/39/21
f 38/38/20 40/40/21 39/39/21
f 37/41/22 39/42/22 35/43/22
f 39/42/22 33/44/22 35/43/22
f 40/45/23 38/46/23 34/47/23
f 38/46/23 36/48/23 34/47/23
f 39/39/24 40/40/24 33/33/25
f 40/40/24 34/34/26 33/33/25
f 35/35/27 36/36/27 37/37/28
f 36/36/27 38/38/28 37/37/28
f 41/49/1 42/50/2 43/51/3
f 42/50/2 44/52/3 43/51/3
f 45/53/4 46/54/5 47/55/6
f 46/54/5 48/56/6 47/55/6
f 45/57/7 47/58/7 43/59/7
f 47/58/7 41/60/7 43/59/7
f 48/61/8 46/62/8 42/63/8
f 46/62/8 44/64/8 42/63/8
f 47/55/9 48/56/9 41/49/10
f 48/56/9 42/50/10 41/49/10
f 43/51/11 44/52/12 45/53/13
f 44/52/12 46/54/14 45/53/13
f 49/65/29 50/66/29 51/67/30
f 50/66/29 52/68/30 51/67/30
f 53/69/31 54/70/32 55/71/33
f 54/70/32 56/72/34 55/71/33
f 53/73/35 55/74/35 51/75/35
f 55/74/35 49/76/35 51/75/35
f 56/77/36 54/78/36 50/79/36
f 54/78/36 52/80/36 50/79/36
f 55/71/37 56/72/37 49/65/38
f 56/72/37 50/66/39 49/65/38
f 51/67/40 52/68/41 53/69/42
f 52/68/41 54/70/43 53/69/42
f 57/81/44 58/82/45 59/83/46
f 58/82/45 60/84/47 59/83/46
f 61/85/48 62/86/49 63/87/50
f 62/86/49 64/88/51 63/87/50
f 61/89/52 63/90/52 59/91/52
f 63/90/52 57/92/52 59/91/52
f 64/93/53 62/94/53 58/95/53
f 62/94/53 60/96/53 58/95/53
f 63/87/54 64/88/54 57/81/55
f 64/88/54 58/82/56 57/81/55
f 59/83/57 60/84/57 61/85/58
f 60/84/57 62/86/58 61/85/58
f 65/97/29 66/98/29 67/99/30
f 66/98/29 68/100/30 67/99/30
f 69/101/31 70/102/32 71/103/33
f 70/102/32 72/104/34 71/103/33
f 69/105/35 71/106/35 67/107/35
f 71/106/35 65/108/35 67/107/35
f 72/109/36 70/110/36 66/111/36
f 70/110/36 68/112/36 66/111/36
f 71/103/37 72/104/37 65/97/38
f 72/104/37 66/98/39 65/97/38
f 67/99/40 68/100/41 69/101/42
f 68/100/41 70/102/43 69/101/42
f 73/113/44 74/114/45 75/115/46
f 74/114/45 76/116/47 75/115/46
f 77/117/48 78/118/49 79/119/50
f 78/118/49 80/120/51 79/119/50
f 77/121/52 79/122/52 75/123/52
f 79/122/52 73/124/52 75/123/52
f 80/125/53 78/126/53 74/127/53
f 78/126/53 76/128/53 74/127/53
f 79/119/54 80/120/54 73/113/55
f 80/120/54 74/114/56 73/113/55
f 75/115/57 76/116/57 77/117/58
f 76/116/57 78/118/58 77/117/58
f 81/129/59 82/130/60 83/131/61
f 82/130/60 84/132/61 83/131/61
f 85/133/62 86/134/63 87/135/64
f 86/134/63 88/136/65 87/135/64
f 85/137/66 87/138/66 83/139/66
f 87/138/66 81/140/66 83/139/66
f 88/141/67 86/142/67 82/143/67
f 86/142/67 84/144/67 82/143/67
f 87/135/68 88/136/69 81/129/70
f 88/136/69 82/130/71 81/129/70
f 83/131/72 84/132/72 85/133/73
f 84/132/72 86/134/73 85/133/73
f 89/145/74 90/146/75 91/147/76
f 90/146/75 92/148/77 91/147/76
f 93/149/78 94/150/78 95/151/79
f 94/150/78 96/152/80 95/151/79
f 93/153/81 95/154/81 91/155/81
f 95/154/81 89/156/81 91/155/81
f 96/157/82 94/158/82 90/159/82
f 94/158/82 92/160/82 90/159/82
f 95/151/83 96/152/84 89/145/85
f 96/152/84 90/146/85 89/145/85
f 91/147/86 92/148/87 93/149/88
f 92/148/87 94/150/88 93/149/88
f 97/161/59 98/162/60 99/163/61
f 98/162/60 100/164/61 99/163/61
f 101/165/62 102/166/63 103/167/64
f 102/166/63 104/168/65 103/167/64
f 101/169/66 103/170/66 99/171/66
f 103/170/66 97/172/66 99/171/66
f 104/173/67 102/174/67 98/175/67
f 102/174/67 100/176/67 98/175/67
f 103/167/68 104/168/69 97/161/70
f 104/168/69 98/162/71 97/161/70
f 99/163/72 100/164/72 101/165/73
f 100/164/72 102/166/73 101/165/73
f 105/177/74 106/178/75 107/179/76
f 106/178/75 108/180/77 107/179/76
f 109/181/78 110/182/78 111/183/79
f 110/182/78 112/184/80 111/183/79
f 109/185/81 111/186/81 107/187/81
f 111/186/81 105/188/81 107/187/81
f 112/189/82 110/190/82 106/191/82
f 110/190/82 108/192/82 106/191/82
f 111/183/83 112/184/84 105/177/85
f 112/184/84 106/178/85 105/177/85
f 107/179/86 108/180/87 109/181/88
f 108/180/87 110/182/88 109/181/88
f 113/193/89 114/194/89 115/195/90
f 114/194/89 116/196/90 115/195/90
f 117/197/91 118/198/92 119/199/93
f 118/198/92 120/200/93 119/199/93
f 117/201/94 119/202/94 115/203/94
f 119/202/94 113/204/94 115/203/94
f 120/205/95 118/206/95 114/207/95
f 118/206/95 116/208/95 114/207/95
f 119/199/96 120/200/97 113/193/98
f 120/200/97 114/194/98 113/193/98
f 115/195/99 116/196/99 117/197/100
f 116/196/99 118/198/101 117/197/100
f 121/209/102 122/210/103 123/211/104
f 122/210/103 124/212/104 123/211/104
f 125/213/105 126/214/105 127/215/106
f 126/214/105 128/216/106 127/215/106
f 125/217/107 127/218/107 123/219/107
f 127/218/107 121/220/107 123/219/107
f 128/221/108 126/222/108 122/223/108
f 126/222/108 124/224/108 122/223/108
f 127/215/109 128/216/110 121/209/111
f 128/216/110 122/210/111 121/209/111
f 123/211/112 124/212/113 125/213/114
f 124/212/113 126/214/114 125/213/114
f 129/225/89 130/226/89 131/227/90
f 130/226/89 132/228/90 131/227/90
f 133/229/91 134/230/92 135/231/93
f 134/230/92 136/232/93 135/231/93
f 133/233/94 135/234/94 131/235/94
f 135/234/94 129/236/94 131/235/94
f 136/237/95 134/238/95 130/239/95
f 134/238/95 132/240/95 130/239/95
f 135/231/96 136/232/97 129/225/98
f 136/232/97 130/226/98 129/225/98
f 131/227/99 132/228/99 133/229/100
f 132/228/99 134/230/101 133/229/100
f 137/241/102 138/242/103 139/243/104
f 138/242/103 140/244/104 139/243/104
f 141/245/105 142/246/105 143/247/106
f 142/246/105 144/248/106 143/247/106
f 141/249/107 143/250/107 139/251/107
f 143/250/107 137/252/107 139/251/107
f 144/253/108 142/254/108 138/255/108
f 142/254/108 140/256/108 138/255/108
f 143/247/109 144/248/110 137/241/111
f 144/248/110 138/242/111 137/241/111
f 139/243/112 140/244/113 141/245/114
f 140/244/113 142/246/114 141/245/114
f 145/257/115 146/258/116 147/259/117
f 146/258/116 148/260/118 147/259/117
f 149/261/119 150/262/119 151/263/120
f 150/262/119 152/264/120 151/263/120
f 149/265/121 151/266/121 147/267/121
f 151/266/121 145/268/121 147/267/121
f 152/269/122 150/270/122 146/271/122
f 150/270/122 148/272/122 146/271/122
f 151/263/123 152/264/124 145/257/125
f 152/264/124 146/258/125 145/257/125
f 147/259/126 148/260/127 149/261/128
f 148/260/127 150/262/128 149/261/128
f 153/273/129 154/274/130 155/275/131
f 154/274/130 156/276/131 155/275/131
f 157/277/132 158/278/132 159/279/133
f 158/278/132 160/280/134 159/279/133
f 157/281/135 159/282/135 155/283/135
f 159/282/135 153/284/135 155/283/135
f 160/285/136 158/286/136 154/287/136
f 158/286/136 156/288/136 154/287/136
f 159/279/137 160/280/138 153/273/139
f 160/280/138 154/274/140 153/273/139
f 155/275/141 156/276/142 157/277/143
f 156/276/142 158/278/144 157/277/143
f 161/289/115 162/290/116 163/291/117
f 162/290/116 164/292/118 163/291/117
f 165/293/119 166/294/119 167/295/120
f 166/294/119 168/296/120 167/295/120
f 165/297/121 167/298/121 163/299/121
f 167/298/121 161/300/121 163/299/121
f 168/301/122 166/302/122 162/303/122
f 166/302/122 164/304/122 162/303/122
f 167/295/123 168/296/124 161/289/125
f 168/296/124 162/290/125 161/289/125
f 163/291/126 164/292/127 165/293/128
f 164/292/127 166/294/128 165/293/128
f 169/305/129 170/306/130 171/307/131
f 170/306/130 172/308/131 171/307/131
f 173/309/132 174/310/132 175/311/133
f 174/310/132 176/312/134 175/311/133
f 173/313/135 175/314/135 171/315/135
f 175/314/135 169/316/135 171/315/135
f 176/317/136 174/318/136 170/319/136
f 174/318/136 172/320/136 170/319/136
f 175/311/137 176/312/138 169/305/139
f 176/312/138 170/306/140 169/305/139
f 171/307/141 172/308/142 173/309/143
f 172/308/142 174/310/144 173/309/143
usemtl 2.015
f 9/321/145 10/322/145 11/323/145
f 10/322/145 12/324/145 11/323/145
f 13/325/146 14/326/146 15/327/146
f 14/326/146 16/328/146 15/327/146
f 17/329/145 18/330/145 19/331/145
f 18/330/145 20/332/145 19/331/145
f 21/333/146 22/334/146 23/335/146
f 22/334/146 24/336/146 23/335/146
